<svg id="er6EsvB2Vyh1" xmlns="http://www.w3.org/2000/svg" xmlns:xlink="http://www.w3.org/1999/xlink" viewBox="0 0 100 100" shape-rendering="geometricPrecision" text-rendering="geometricPrecision"><style><![CDATA[#er6EsvB2Vyh2_tr {animation: er6EsvB2Vyh2_tr__tr 2000ms linear infinite normal forwards}@keyframes er6EsvB2Vyh2_tr__tr { 0% {transform: translate(50.000977px,50.001488px) rotate(-21.302701deg)} 25% {transform: translate(50.000977px,50.001488px) rotate(1.631740deg)} 50% {transform: translate(50.000977px,50.001488px) rotate(0.034192deg)} 100% {transform: translate(50.000977px,50.001488px) rotate(-21.300000deg)}}]]></style><g id="er6EsvB2Vyh2_tr" transform="translate(50.000977,50.001488) rotate(-21.302701)"><g id="er6EsvB2Vyh2" transform="translate(-50.000977,-50.001488)"><path id="er6EsvB2Vyh3" d="M89.835000,44.719000L82.880000,37.763000C82.478000,37.361000,81.163000,36.120000,79.624000,34.783000C79.800322,33.735508,79.698953,32.660094,79.330000,31.664000C78.730000,30.014000,77.538000,28.722000,76.452000,27.677000C74.840000,26.126000,73.224000,24.495000,71.661000,22.918000C69.356000,20.592000,66.973000,18.187000,64.486000,15.914000C62.685000,14.269000,59.921000,12.017000,56.724000,11.452000C50.345000,10.322000,44.038000,9.468000,37.360000,8.564000C34.859057,8.227912,32.359047,7.884911,29.860000,7.535000C28.648663,7.364469,27.439623,7.861162,26.698000,8.834000C25.957046,9.808149,25.800602,11.106749,26.289000,12.229000C26.416000,12.522000,26.462000,12.769000,26.476000,12.866000C26.445000,14.213000,27.225000,15.258000,28.459000,15.818000C32.774000,17.778000,44.738000,23.872000,48.239000,28.475000C50.619000,31.605000,48.337000,35.958000,47.735000,36.988000C42.004000,42.723000,35.060000,49.824000,28.340000,56.696000C22.159000,63.017000,15.767000,69.552000,10.567000,74.769000C7.787000,77.557000,7.818000,81.364000,10.643000,84.242000C12.273671,85.900915,13.914703,87.549614,15.566000,89.188000C17.322000,90.933000,19.098000,92.501000,21.505000,92.501000C23.934000,92.501000,25.749000,90.889000,27.547000,89.093000C36.538000,80.113000,58.425000,57.723000,63.100000,52.901000C63.724000,53.496000,64.312000,54.036000,64.769000,54.457000C65.080000,54.743000,65.401000,55.039000,65.503000,55.141000L72.459000,62.097000C73.521269,63.164341,74.966139,63.762740,76.472000,63.759000C77.977861,63.762740,79.422731,63.164341,80.485000,62.097000L89.836000,52.746000C90.904238,51.683842,91.503077,50.238418,91.499000,48.732000C91.501988,47.225894,90.902887,45.781066,89.835000,44.719000Z" fill="rgb(209,209,209)" stroke="none" stroke-width="1"/><path id="er6EsvB2Vyh4" d="M61.218000,50L74.669000,36.744000C77.218000,34.299000,75.906000,32.374000,73.850000,30.396000C69.841000,26.538000,66.052000,22.444000,61.948000,18.693000C60.225000,17.119000,58.060000,15.449000,55.875000,15.063000C47.182000,13.522000,38.401000,12.471000,29.130000,11.164000C29.580000,12.197000,29.598000,13.025000,29.598000,13.025000C29.598000,13.025000,45.879000,20.413000,50.671000,26.714000C54.918000,32.299000,50.143000,39.387000,50.143000,39.387000L61.218000,50Z" fill="rgb(69,69,69)" stroke="none" stroke-width="1"/><path id="er6EsvB2Vyh5" d="M45.585000,44.549000L56.367000,55.327000C55.698000,56.060000,34.721000,77.176000,24.901000,86.985000C21.688000,90.194000,20.833000,90.199000,17.691000,87.075000C16.049577,85.445742,14.417881,83.806713,12.796000,82.158000C11.291000,80.625000,11.168000,78.978000,12.701000,77.439000C23.601000,66.508000,34.527000,55.603000,45.585000,44.549000Z" fill="rgb(69,69,69)" stroke="none" stroke-width="1"/><path id="er6EsvB2Vyh6" d="M67.635000,49.789000C66.739160,50.685182,66.739160,52.137818,67.635000,53.034000L74.591000,59.990000C75.487525,60.885954,76.940475,60.885954,77.837000,59.990000L87.188000,50.639000C88.083954,49.742475,88.083954,48.289525,87.188000,47.393000L80.233000,40.437000C79.336475,39.541046,77.883525,39.541046,76.987000,40.437000L67.635000,49.789000Z" fill="rgb(69,69,69)" stroke="none" stroke-width="1"/></g></g></svg>