<svg id="eWKIEmsl0Xy1" xmlns="http://www.w3.org/2000/svg" xmlns:xlink="http://www.w3.org/1999/xlink" viewBox="0 0 153.60001 153.60001" shape-rendering="geometricPrecision" text-rendering="geometricPrecision"><style><![CDATA[#eWKIEmsl0Xy3_to {animation: eWKIEmsl0Xy3_to__to 3000ms linear 1s 1 normal forwards}@keyframes eWKIEmsl0Xy3_to__to { 0% {transform: translate(73.187308px,20.477625px)} 14% {transform: translate(147.859825px,108.935467px)} 100% {transform: translate(147.859825px,108.935467px)}} #eWKIEmsl0Xy3_tr {animation: eWKIEmsl0Xy3_tr__tr 3000ms linear 1s 1 normal forwards}@keyframes eWKIEmsl0Xy3_tr__tr { 0% {transform: rotate(0deg)} 14% {transform: rotate(45.358006deg)} 100% {transform: rotate(45.358006deg)}} #eWKIEmsl0Xy4_to {animation: eWKIEmsl0Xy4_to__to 3000ms linear 1s 1 normal forwards}@keyframes eWKIEmsl0Xy4_to__to { 0% {transform: translate(78.66628px,35.554162px)} 14% {transform: translate(124.764963px,108.779661px)} 100% {transform: translate(124.764963px,108.779661px)}} #eWKIEmsl0Xy4_tr {animation: eWKIEmsl0Xy4_tr__tr 3000ms linear 1s 1 normal forwards}@keyframes eWKIEmsl0Xy4_tr__tr { 0% {transform: rotate(0deg)} 14% {transform: rotate(31.748367deg)} 100% {transform: rotate(31.748367deg)}} #eWKIEmsl0Xy5_to {animation: eWKIEmsl0Xy5_to__to 3000ms linear 1s 1 normal forwards}@keyframes eWKIEmsl0Xy5_to__to { 0% {transform: translate(78.815307px,51.897871px)} 17.333333% {transform: translate(111.272487px,111.259205px)} 100% {transform: translate(111.272487px,111.259205px)}} #eWKIEmsl0Xy5_tr {animation: eWKIEmsl0Xy5_tr__tr 3000ms linear 1s 1 normal forwards}@keyframes eWKIEmsl0Xy5_tr__tr { 0% {transform: rotate(0deg)} 17.333333% {transform: rotate(35.476071deg)} 100% {transform: rotate(35.476071deg)}} #eWKIEmsl0Xy7_to {animation: eWKIEmsl0Xy7_to__to 3000ms linear 1s 1 normal forwards}@keyframes eWKIEmsl0Xy7_to__to { 0% {transform: translate(78.964338px,69.941287px)} 17.333333% {transform: translate(92.023287px,112.40123px)} 100% {transform: translate(92.023287px,112.40123px)}} #eWKIEmsl0Xy7_tr {animation: eWKIEmsl0Xy7_tr__tr 3000ms linear 1s 1 normal forwards}@keyframes eWKIEmsl0Xy7_tr__tr { 0% {transform: rotate(0deg)} 17.333333% {transform: rotate(37.763964deg)} 100% {transform: rotate(37.763964deg)}} #eWKIEmsl0Xy8_to {animation: eWKIEmsl0Xy8_to__to 3000ms linear 1s 1 normal forwards}@keyframes eWKIEmsl0Xy8_to__to { 0% {transform: translate(79.187883px,87.937021px)} 17.333333% {transform: translate(80.727468px,122.912087px)} 100% {transform: translate(80.727468px,122.912087px)}} #eWKIEmsl0Xy8_tr {animation: eWKIEmsl0Xy8_tr__tr 3000ms linear 1s 1 normal forwards}@keyframes eWKIEmsl0Xy8_tr__tr { 0% {transform: rotate(0deg)} 17.333333% {transform: rotate(23.337428deg)} 100% {transform: rotate(23.337428deg)}} #eWKIEmsl0Xy9_to {animation: eWKIEmsl0Xy9_to__to 3000ms linear 1s 1 normal forwards}@keyframes eWKIEmsl0Xy9_to__to { 0% {transform: translate(78.765634px,106.781538px)} 17.333333% {transform: translate(78.258282px,132.834471px)} 100% {transform: translate(78.258282px,132.834471px)}} #eWKIEmsl0Xy9_tr {animation: eWKIEmsl0Xy9_tr__tr 3000ms linear 1s 1 normal forwards}@keyframes eWKIEmsl0Xy9_tr__tr { 0% {transform: rotate(0deg)} 6.666667% {transform: rotate(13.879004deg)} 100% {transform: rotate(13.879004deg)}} #eWKIEmsl0Xy10_to { 1s 1 normal forwards}@keyframes eWKIEmsl0Xy10_to__to { 0% {transform: translate(83.385547px,123.608061px)} 14% {transform: translate(64.118849px,138.419383px)} 100% {transform: translate(64.118849px,138.419383px)}}]]></style><g id="eWKIEmsl0Xy2" transform="matrix(1 0 0 1 -17.713106 4.690627)"><g id="eWKIEmsl0Xy3_to" transform="translate(73.187308,20.477625)"><g id="eWKIEmsl0Xy3_tr" transform="rotate(0)"><path id="eWKIEmsl0Xy3" d="M100.48119,21.859586C83.58842,18.689924,78.122142,20.353367,71.256987,24.036773C63.740092,28.069862,53.026516,32.209188,41.067988,26.628542L41.067988,26.628542C54.565175,29.201637,59.342116,26.718722,70.462708,21.813996C84.281896,15.719062,90.271662,18.102628,100.48119,21.859586Z" transform="translate(-70.774591,-23.712608)" fill="rgb(119,150,216)" stroke="rgb(119,150,216)" stroke-width="0.5"/></g></g><g id="eWKIEmsl0Xy4_to" transform="translate(78.66628,35.554162)"><g id="eWKIEmsl0Xy4_tr" transform="rotate(0)"><path id="eWKIEmsl0Xy4" d="M77.735728,34.727161C88.45381,25.568179,111.89478,26.855631,124.78759,39.741269C107.21347,28.597779,88.713346,31.31134,75.935957,40.441573C61.72082,50.599165,43.482246,52.66076,27.719535,39.939976C36.967341,46.848631,61.663472,48.461475,77.735728,34.727161Z" transform="translate(-76.253563,-38.789145)" fill="rgb(119,150,216)" stroke="rgb(119,150,216)" stroke-width="0.377953"/></g></g><g id="eWKIEmsl0Xy5_to" transform="translate(78.815307,51.897871)"><g id="eWKIEmsl0Xy5_tr" transform="rotate(0)"><path id="eWKIEmsl0Xy5" d="M76.804665,52.633897C59.248162,66.343876,39.648968,68.301376,18.082278,58.618372C40.987746,75.203228,60.795178,69.226922,75.52669,59.256011C89.900826,49.526986,111.24152,43.227016,134.7229,57.823547C112.2226,36.685368,87.476623,44.300101,76.804665,52.633897Z" transform="translate(-76.40259,-56.576124)" fill="rgb(119,150,216)" stroke="rgb(119,150,216)" stroke-width="0.4"/></g></g><path id="eWKIEmsl0Xy6" d="" fill="none" stroke="rgb(0,0,0)" stroke-width="1"/><g id="eWKIEmsl0Xy7_to" transform="translate(78.964338,69.941287)"><g id="eWKIEmsl0Xy7_tr" transform="rotate(0)"><path id="eWKIEmsl0Xy7" d="M137.80286,76.402591C116.91126,58.133028,89.300367,60.113936,76.940438,70.776147C59.900835,85.475248,35.465504,88.139537,15.300389,76.800003C46.641246,96.645597,65.868443,83.594353,77.963129,75.671791C88.784113,68.58356,108.98316,60.154706,137.80286,76.402591Z" transform="translate(-76.551621,-74.980358)" fill="rgb(119,150,216)" stroke="rgb(119,150,216)" stroke-width="0.4"/></g></g><g id="eWKIEmsl0Xy8_to" transform="translate(79.187883,87.937021)"><g id="eWKIEmsl0Xy8_tr" transform="rotate(0)"><path id="eWKIEmsl0Xy8" d="M77.715897,88.794689C88.582338,80.951927,112.54198,74.151308,134.7229,94.981634C114.6657,81.874078,91.755468,84.817502,80.968574,92.555019C62.470377,105.82391,45.791744,112.11834,18.827427,95.726783C43.235339,104.95984,59.289322,102.09391,77.715897,88.794689Z" transform="translate(-76.775166,-93.33691)" fill="rgb(119,150,216)" stroke="rgb(119,150,216)" stroke-width="0.5"/></g></g><g id="eWKIEmsl0Xy9_to" transform="translate(78.765634,106.781538)"><g id="eWKIEmsl0Xy9_tr" transform="rotate(0)"><path id="eWKIEmsl0Xy9" d="M75.371533,109.41087C60.641094,120.79665,43.437326,121.01912,27.719535,113.56068C40.212408,126.05355,61.56262,124.8668,76.918371,113.33022C87.413556,105.44532,104.39445,102.17045,124.98629,112.96456C106.15502,96.893896,86.626973,100.71106,75.371533,109.41087Z" transform="translate(-76.352917,-112.181427)" fill="rgb(119,150,216)" stroke="rgb(119,150,216)" stroke-width="0.5"/></g></g><g id="eWKIEmsl0Xy10_to" transform="translate(83.385547,123.608061)"><path id="eWKIEmsl0Xy10" d="M51.067531,131.94101C56.476899,133.80048,69.986356,133.01831,79.109682,127.27062C87.297011,122.11261,98.664554,121.91204,110.87814,127.07271C99.268268,124.10574,86.905788,125.63424,79.023368,131.0329C73.842063,134.58157,58.111737,136.73107,51.067531,131.94101Z" transform="translate(-80.97283,-129.00795)" fill="rgb(119,150,216)" stroke="rgb(119,150,216)" stroke-width="0.5"/></g></g></svg>